<svg xmlns="http://www.w3.org/2000/svg" xmlns:xlink="http://www.w3.org/1999/xlink" version="1.1" x="0px" y="0px" width="30px" height="30px" viewBox="0 0 512 512" enable-background="new 0 0 512 512" xml:space="preserve">
  <path d="M183.143,164.929H283.95v51.673h1.441c14.025-25.155,48.358-51.673,99.52-51.673c106.409,0,126.089,66.24,126.089,152.394   v175.464H405.92V337.237c0-37.103-0.76-84.826-54.658-84.826c-54.728,0-63.079,40.405-63.079,82.131v158.244h-105.04V164.929z"></path>
  <path d="M1,164.929h109.286v327.857H1V164.929z"></path>
  <path d="M110.286,73.856c0,30.179-24.464,54.644-54.643,54.644C25.465,128.5,1,104.035,1,73.856   c0-30.178,24.464-54.643,54.643-54.643C85.822,19.214,110.286,43.679,110.286,73.856z"></path>
</svg>
